<svg width="33" height="25" viewBox="0 0 33 25" fill="red" xmlns="http://www.w3.org/2000/svg">
<path d="M16.9028 12.7509C17.6809 12.0773 18.305 11.2442 18.7328 10.3082C19.1605 9.37215 19.3819 8.35504 19.3819 7.32588C19.3819 5.39201 18.6137 3.53734 17.2462 2.16989C15.8788 0.802437 14.0241 0.0342105 12.0903 0.0342105C10.1564 0.0342105 8.30172 0.802437 6.93426 2.16989C5.56681 3.53734 4.79858 5.39201 4.79858 7.32588C4.79857 8.35504 5.01996 9.37215 5.44773 10.3082C5.87549 11.2442 6.49962 12.0773 7.27775 12.7509C5.23629 13.6753 3.50426 15.1681 2.28876 17.0508C1.07326 18.9336 0.42573 21.1265 0.423584 23.3675C0.423584 23.7543 0.577229 24.1253 0.85072 24.3987C1.12421 24.6722 1.49514 24.8259 1.88192 24.8259C2.26869 24.8259 2.63962 24.6722 2.91311 24.3987C3.18661 24.1253 3.34025 23.7543 3.34025 23.3675C3.34025 21.0469 4.26212 18.8213 5.90307 17.1804C7.54401 15.5394 9.76961 14.6175 12.0903 14.6175C14.4109 14.6175 16.6365 15.5394 18.2774 17.1804C19.9184 18.8213 20.8402 21.0469 20.8402 23.3675C20.8402 23.7543 20.9939 24.1253 21.2674 24.3987C21.5409 24.6722 21.9118 24.8259 22.2986 24.8259C22.6854 24.8259 23.0563 24.6722 23.3298 24.3987C23.6033 24.1253 23.7569 23.7543 23.7569 23.3675C23.7548 21.1265 23.1072 18.9336 21.8917 17.0508C20.6762 15.1681 18.9442 13.6753 16.9028 12.7509V12.7509ZM12.0903 11.7009C11.225 11.7009 10.3791 11.4443 9.65963 10.9636C8.94017 10.4828 8.37941 9.79954 8.04828 9.00012C7.71714 8.20069 7.6305 7.32102 7.79931 6.47236C7.96813 5.62369 8.3848 4.84414 8.99666 4.23228C9.60851 3.62043 10.3881 3.20375 11.2367 3.03494C12.0854 2.86613 12.9651 2.95277 13.7645 3.2839C14.5639 3.61504 15.2472 4.17579 15.7279 4.89526C16.2087 5.61472 16.4652 6.46058 16.4652 7.32588C16.4652 8.4862 16.0043 9.599 15.1838 10.4195C14.3634 11.2399 13.2506 11.7009 12.0903 11.7009ZM26.2944 12.1675C27.2277 11.1166 27.8373 9.81825 28.05 8.42887C28.2626 7.03949 28.0691 5.61828 27.4928 4.33629C26.9165 3.05431 25.982 1.9662 24.8018 1.20295C23.6215 0.4397 22.2458 0.0338345 20.8402 0.0342105C20.4535 0.0342105 20.0825 0.187856 19.8091 0.461346C19.5356 0.734837 19.3819 1.10577 19.3819 1.49254C19.3819 1.87932 19.5356 2.25025 19.8091 2.52374C20.0825 2.79723 20.4535 2.95088 20.8402 2.95088C22.0006 2.95088 23.1134 3.41181 23.9338 4.23228C24.7543 5.05276 25.2152 6.16555 25.2152 7.32588C25.2132 8.09185 25.0101 8.84386 24.6262 9.5067C24.2423 10.1695 23.6911 10.72 23.0277 11.103C22.8115 11.2277 22.6309 11.4058 22.5033 11.6203C22.3756 11.8348 22.3051 12.0784 22.2986 12.328C22.2925 12.5755 22.3495 12.8206 22.4643 13.04C22.5792 13.2594 22.748 13.446 22.9548 13.5821L23.5236 13.9613L23.7132 14.0634C25.471 14.8971 26.954 16.2159 27.9875 17.8643C29.021 19.5126 29.5619 21.422 29.5465 23.3675C29.5465 23.7543 29.7001 24.1253 29.9736 24.3987C30.2471 24.6722 30.6181 24.8259 31.0048 24.8259C31.3916 24.8259 31.7625 24.6722 32.036 24.3987C32.3095 24.1253 32.4632 23.7543 32.4632 23.3675C32.4751 21.1296 31.9146 18.9258 30.8349 16.9655C29.7552 15.0053 28.1922 13.3536 26.2944 12.1675V12.1675Z" />
</svg>
