<svg width="30" height="30" viewBox="0 0 30 30" fill="none" xmlns="http://www.w3.org/2000/svg">
<path d="M14.8358 5.95447C14.449 5.95447 14.0781 6.10812 13.8046 6.38161C13.5311 6.6551 13.3774 7.02603 13.3774 7.41281V21.9961C13.3774 22.3829 13.5311 22.7538 13.8046 23.0273C14.0781 23.3008 14.449 23.4545 14.8358 23.4545C15.2225 23.4545 15.5935 23.3008 15.867 23.0273C16.1405 22.7538 16.2941 22.3829 16.2941 21.9961V7.41281C16.2941 7.02603 16.1405 6.6551 15.867 6.38161C15.5935 6.10812 15.2225 5.95447 14.8358 5.95447ZM7.54411 14.7045C7.15733 14.7045 6.7864 14.8581 6.51291 15.1316C6.23942 15.4051 6.08577 15.776 6.08577 16.1628V21.9961C6.08577 22.3829 6.23942 22.7538 6.51291 23.0273C6.7864 23.3008 7.15733 23.4545 7.54411 23.4545C7.93088 23.4545 8.30181 23.3008 8.5753 23.0273C8.8488 22.7538 9.00244 22.3829 9.00244 21.9961V16.1628C9.00244 15.776 8.8488 15.4051 8.5753 15.1316C8.30181 14.8581 7.93088 14.7045 7.54411 14.7045ZM22.1274 11.7878C21.7407 11.7878 21.3697 11.9415 21.0962 12.2149C20.8228 12.4884 20.6691 12.8594 20.6691 13.2461V21.9961C20.6691 22.3829 20.8228 22.7538 21.0962 23.0273C21.3697 23.3008 21.7407 23.4545 22.1274 23.4545C22.5142 23.4545 22.8851 23.3008 23.1586 23.0273C23.4321 22.7538 23.5858 22.3829 23.5858 21.9961V13.2461C23.5858 12.8594 23.4321 12.4884 23.1586 12.2149C22.8851 11.9415 22.5142 11.7878 22.1274 11.7878ZM25.0441 0.12114H4.62744C3.46712 0.12114 2.35432 0.582076 1.53385 1.40255C0.713378 2.22302 0.252441 3.33582 0.252441 4.49614V24.9128C0.252441 26.0731 0.713378 27.1859 1.53385 28.0064C2.35432 28.8269 3.46712 29.2878 4.62744 29.2878H25.0441C26.2044 29.2878 27.3172 28.8269 28.1377 28.0064C28.9582 27.1859 29.4191 26.0731 29.4191 24.9128V4.49614C29.4191 3.33582 28.9582 2.22302 28.1377 1.40255C27.3172 0.582076 26.2044 0.12114 25.0441 0.12114ZM26.5024 24.9128C26.5024 25.2996 26.3488 25.6705 26.0753 25.944C25.8018 26.2175 25.4309 26.3711 25.0441 26.3711H4.62744C4.24067 26.3711 3.86973 26.2175 3.59624 25.944C3.32275 25.6705 3.16911 25.2996 3.16911 24.9128V4.49614C3.16911 4.10937 3.32275 3.73843 3.59624 3.46494C3.86973 3.19145 4.24067 3.03781 4.62744 3.03781H25.0441C25.4309 3.03781 25.8018 3.19145 26.0753 3.46494C26.3488 3.73843 26.5024 4.10937 26.5024 4.49614V24.9128Z" />
</svg>
