<svg viewBox="0 0 12 12" xmlns="http://www.w3.org/2000/svg">
<path d="M8.16415 3.83583C8.10992 3.78116 8.04541 3.73776 7.97432 3.70815C7.90324 3.67853 7.82699 3.66328 7.74998 3.66328C7.67298 3.66328 7.59673 3.67853 7.52565 3.70815C7.45456 3.73776 7.39005 3.78116 7.33582 3.83583L5.99998 5.1775L4.66415 3.83583C4.55431 3.72599 4.40533 3.66428 4.24999 3.66428C4.09464 3.66428 3.94566 3.72599 3.83582 3.83583C3.72597 3.94568 3.66426 4.09466 3.66426 4.25C3.66426 4.40534 3.72597 4.55432 3.83582 4.66417L5.17748 6L3.83582 7.33583C3.78114 7.39006 3.73775 7.45458 3.70813 7.52566C3.67852 7.59675 3.66327 7.67299 3.66327 7.75C3.66327 7.82701 3.67852 7.90325 3.70813 7.97434C3.73775 8.04542 3.78114 8.10994 3.83582 8.16417C3.89005 8.21884 3.95456 8.26224 4.02565 8.29185C4.09673 8.32147 4.17298 8.33672 4.24999 8.33672C4.32699 8.33672 4.40324 8.32147 4.47432 8.29185C4.54541 8.26224 4.60992 8.21884 4.66415 8.16417L5.99998 6.8225L7.33582 8.16417C7.39005 8.21884 7.45456 8.26224 7.52565 8.29185C7.59673 8.32147 7.67298 8.33672 7.74998 8.33672C7.82699 8.33672 7.90324 8.32147 7.97432 8.29185C8.04541 8.26224 8.10992 8.21884 8.16415 8.16417C8.21883 8.10994 8.26222 8.04542 8.29184 7.97434C8.32145 7.90325 8.3367 7.82701 8.3367 7.75C8.3367 7.67299 8.32145 7.59675 8.29184 7.52566C8.26222 7.45458 8.21883 7.39006 8.16415 7.33583L6.82248 6L8.16415 4.66417C8.21883 4.60994 8.26222 4.54542 8.29184 4.47434C8.32145 4.40325 8.3367 4.32701 8.3367 4.25C8.3367 4.17299 8.32145 4.09675 8.29184 4.02566C8.26222 3.95458 8.21883 3.89006 8.16415 3.83583ZM10.1242 1.87583C9.58605 1.31869 8.94237 0.874295 8.23068 0.568576C7.51899 0.262857 6.75354 0.101937 5.97899 0.0952062C5.20445 0.0884756 4.43632 0.236069 3.71942 0.529374C3.00252 0.822679 2.35122 1.25582 1.80351 1.80353C1.25581 2.35124 0.822664 3.00254 0.529359 3.71944C0.236054 4.43633 0.0884604 5.20446 0.095191 5.97901C0.101922 6.75355 0.262841 7.519 0.56856 8.23069C0.87428 8.94238 1.31868 9.58606 1.87582 10.1242C2.41392 10.6813 3.0576 11.1257 3.76929 11.4314C4.48098 11.7371 5.24643 11.8981 6.02098 11.9048C6.79552 11.9115 7.56365 11.7639 8.28055 11.4706C8.99745 11.1773 9.64875 10.7442 10.1965 10.1965C10.7442 9.64876 11.1773 8.99746 11.4706 8.28057C11.7639 7.56367 11.9115 6.79554 11.9048 6.02099C11.898 5.24645 11.7371 4.481 11.4314 3.76931C11.1257 3.05762 10.6813 2.41394 10.1242 1.87583ZM9.30165 9.30167C8.53868 10.0655 7.53447 10.5411 6.46011 10.6476C5.38576 10.754 4.30774 10.4847 3.40971 9.88545C2.51167 9.2862 1.84919 8.39412 1.53514 7.3612C1.22108 6.32828 1.27487 5.21842 1.68735 4.22071C2.09983 3.223 2.84548 2.39917 3.79725 1.88958C4.74903 1.37999 5.84805 1.21616 6.90707 1.42601C7.96609 1.63586 8.9196 2.2064 9.60513 3.04044C10.2907 3.87447 10.6658 4.92039 10.6667 6C10.6687 6.61325 10.5492 7.22083 10.3149 7.78756C10.0806 8.35429 9.73618 8.86892 9.30165 9.30167Z" fill="#9D9D9D"/>
</svg>
