<svg width="32" height="32" viewBox="0 0 32 32" fill="none" xmlns="http://www.w3.org/2000/svg">
<path d="M18.6667 14.6666H17.3333V9.33329H20C20.3536 9.33329 20.6928 9.47377 20.9428 9.72382C21.1929 9.97387 21.3333 10.313 21.3333 10.6666C21.3333 11.0202 21.4738 11.3594 21.7239 11.6094C21.9739 11.8595 22.313 12 22.6667 12C23.0203 12 23.3594 11.8595 23.6095 11.6094C23.8595 11.3594 24 11.0202 24 10.6666C24 9.60576 23.5786 8.58834 22.8284 7.8382C22.0783 7.08805 21.0609 6.66663 20 6.66663H17.3333V3.99996C17.3333 3.64634 17.1929 3.3072 16.9428 3.05715C16.6928 2.8071 16.3536 2.66663 16 2.66663C15.6464 2.66663 15.3072 2.8071 15.0572 3.05715C14.8071 3.3072 14.6667 3.64634 14.6667 3.99996V6.66663H13.3333C11.9188 6.66663 10.5623 7.22853 9.5621 8.22872C8.5619 9.22892 8 10.5855 8 12C8 13.4144 8.5619 14.771 9.5621 15.7712C10.5623 16.7714 11.9188 17.3333 13.3333 17.3333H14.6667V22.6666H12C11.6464 22.6666 11.3072 22.5262 11.0572 22.2761C10.8071 22.0261 10.6667 21.6869 10.6667 21.3333C10.6667 20.9797 10.5262 20.6405 10.2761 20.3905C10.0261 20.1404 9.68696 20 9.33333 20C8.97971 20 8.64057 20.1404 8.39052 20.3905C8.14048 20.6405 8 20.9797 8 21.3333C8 22.3942 8.42143 23.4116 9.17157 24.1617C9.92172 24.9119 10.9391 25.3333 12 25.3333H14.6667V28C14.6667 28.3536 14.8071 28.6927 15.0572 28.9428C15.3072 29.1928 15.6464 29.3333 16 29.3333C16.3536 29.3333 16.6928 29.1928 16.9428 28.9428C17.1929 28.6927 17.3333 28.3536 17.3333 28V25.3333H18.6667C20.0812 25.3333 21.4377 24.7714 22.4379 23.7712C23.4381 22.771 24 21.4144 24 20C24 18.5855 23.4381 17.2289 22.4379 16.2287C21.4377 15.2285 20.0812 14.6666 18.6667 14.6666V14.6666ZM14.6667 14.6666H13.3333C12.6261 14.6666 11.9478 14.3857 11.4477 13.8856C10.9476 13.3855 10.6667 12.7072 10.6667 12C10.6667 11.2927 10.9476 10.6144 11.4477 10.1143C11.9478 9.61424 12.6261 9.33329 13.3333 9.33329H14.6667V14.6666ZM18.6667 22.6666H17.3333V17.3333H18.6667C19.3739 17.3333 20.0522 17.6142 20.5523 18.1143C21.0524 18.6144 21.3333 19.2927 21.3333 20C21.3333 20.7072 21.0524 21.3855 20.5523 21.8856C20.0522 22.3857 19.3739 22.6666 18.6667 22.6666Z" fill="black"/>
</svg>
