<svg width="8" height="20" viewBox="0 0 4 18" fill="none" xmlns="http://www.w3.org/2000/svg">
<path d="M0 9C0 9.39556 0.117298 9.78224 0.337061 10.1111C0.556824 10.44 0.869181 10.6964 1.23463 10.8478C1.60009 10.9991 2.00222 11.0387 2.39018 10.9616C2.77814 10.8844 3.13451 10.6939 3.41421 10.4142C3.69392 10.1345 3.8844 9.77814 3.96157 9.39018C4.03874 9.00222 3.99913 8.60008 3.84776 8.23463C3.69638 7.86918 3.44004 7.55682 3.11114 7.33706C2.78224 7.1173 2.39556 7 2 7C1.46957 7 0.96086 7.21071 0.585787 7.58579C0.210714 7.96086 0 8.46957 0 9ZM0 16C0 16.3956 0.117298 16.7822 0.337061 17.1111C0.556824 17.44 0.869181 17.6964 1.23463 17.8478C1.60009 17.9991 2.00222 18.0387 2.39018 17.9616C2.77814 17.8844 3.13451 17.6939 3.41421 17.4142C3.69392 17.1345 3.8844 16.7781 3.96157 16.3902C4.03874 16.0022 3.99913 15.6001 3.84776 15.2346C3.69638 14.8692 3.44004 14.5568 3.11114 14.3371C2.78224 14.1173 2.39556 14 2 14C1.46957 14 0.96086 14.2107 0.585787 14.5858C0.210714 14.9609 0 15.4696 0 16ZM0 2C0 2.39556 0.117298 2.78224 0.337061 3.11114C0.556824 3.44004 0.869181 3.69638 1.23463 3.84776C1.60009 3.99913 2.00222 4.03874 2.39018 3.96157C2.77814 3.8844 3.13451 3.69392 3.41421 3.41421C3.69392 3.13451 3.8844 2.77814 3.96157 2.39018C4.03874 2.00222 3.99913 1.60008 3.84776 1.23463C3.69638 0.869181 3.44004 0.556824 3.11114 0.337061C2.78224 0.117298 2.39556 0 2 0C1.46957 0 0.96086 0.210714 0.585787 0.585787C0.210714 0.960859 0 1.46957 0 2Z" fill="#9D9D9D"/>
</svg>
