<svg viewBox="0 0 17 18" xmlns="http://www.w3.org/2000/svg">
<path d="M15.5435 6.85916L14.0683 6.32265L14.763 4.8068C14.8334 4.64813 14.8569 4.46953 14.8304 4.29564C14.8038 4.12175 14.7284 3.96114 14.6147 3.83597L12.952 2.02206C12.8367 1.8961 12.6881 1.81274 12.5271 1.78372C12.366 1.7547 12.2007 1.78146 12.0544 1.86026L10.665 2.61818L10.1732 1.00866C10.1213 0.840885 10.0227 0.694949 9.89118 0.591158C9.75967 0.487367 9.60177 0.430883 9.43947 0.429568H7.09775C6.93411 0.429107 6.77447 0.484768 6.64141 0.588683C6.50834 0.692598 6.40857 0.839511 6.35621 1.00866L5.86445 2.61818L4.47503 1.86026C4.3296 1.78343 4.1659 1.75773 4.00651 1.78671C3.84712 1.81569 3.69991 1.89793 3.58518 2.02206L1.92256 3.83597C1.8071 3.96181 1.7307 4.12396 1.7041 4.29963C1.6775 4.4753 1.70203 4.65565 1.77425 4.81532L2.46896 6.33117L0.993682 6.86767C0.839903 6.92434 0.706139 7.03189 0.611005 7.17536C0.515871 7.31884 0.464099 7.4911 0.462893 7.66818V10.223C0.462471 10.4015 0.513489 10.5757 0.608737 10.7209C0.703984 10.866 0.838644 10.9749 0.993682 11.032L2.46896 11.5685L1.77425 13.0844C1.70383 13.243 1.68028 13.4216 1.70684 13.5955C1.7334 13.7694 1.80878 13.93 1.92256 14.0552L3.58518 15.8691C3.70052 15.9951 3.84915 16.0784 4.01017 16.1074C4.17118 16.1365 4.33649 16.1097 4.48284 16.0309L5.87225 15.273L6.36401 16.8825C6.41638 17.0517 6.51615 17.1986 6.64921 17.3025C6.78228 17.4064 6.94192 17.4621 7.10556 17.4616H9.44727C9.61091 17.4621 9.77055 17.4064 9.90362 17.3025C10.0367 17.1986 10.1364 17.0517 10.1888 16.8825L10.6806 15.273L12.07 16.0309C12.2145 16.1058 12.3766 16.1304 12.5344 16.1015C12.6921 16.0726 12.8379 15.9914 12.952 15.8691L14.6147 14.0552C14.7301 13.9294 14.8065 13.7672 14.8331 13.5915C14.8597 13.4159 14.8352 13.2355 14.763 13.0758L14.0683 11.56L15.5435 11.0235C15.6973 10.9668 15.8311 10.8593 15.9262 10.7158C16.0213 10.5723 16.0731 10.4001 16.0743 10.223V7.66818C16.0747 7.48965 16.0237 7.31548 15.9285 7.17031C15.8332 7.02513 15.6986 6.91629 15.5435 6.85916ZM14.5132 9.60983L13.5765 9.95047C13.3611 10.0267 13.1635 10.1531 12.9974 10.321C12.8312 10.4889 12.7006 10.6942 12.6144 10.9226C12.5283 11.1511 12.4887 11.3973 12.4985 11.6441C12.5083 11.8909 12.5671 12.1325 12.671 12.352L13.116 13.3228L12.2573 14.2596L11.3909 13.7486C11.1907 13.6398 10.9715 13.5792 10.7479 13.5709C10.5244 13.5626 10.3019 13.6067 10.0954 13.7004C9.88889 13.7941 9.70325 13.9351 9.55102 14.1138C9.3988 14.2926 9.28356 14.5049 9.2131 14.7365L8.90087 15.7584H7.65976L7.34753 14.7365C7.27767 14.5015 7.16178 14.2859 7.00791 14.1046C6.85404 13.9234 6.66587 13.7808 6.45645 13.6868C6.24703 13.5929 6.02138 13.5497 5.79515 13.5604C5.56892 13.571 5.34753 13.6353 5.14632 13.7486L4.25647 14.234L3.39784 13.2973L3.86619 12.352C3.97007 12.1325 4.02895 11.8909 4.03873 11.6441C4.0485 11.3973 4.00895 11.1511 3.92281 10.9226C3.83666 10.6942 3.70599 10.4889 3.53986 10.321C3.37373 10.1531 3.17612 10.0267 2.96072 9.95047L2.02404 9.60983V8.28133L2.96072 7.94069C3.17612 7.86447 3.37373 7.73803 3.53986 7.57016C3.70599 7.40229 3.83666 7.19699 3.92281 6.96852C4.00895 6.74005 4.0485 6.49387 4.03873 6.24705C4.02895 6.00023 3.97007 5.75869 3.86619 5.53918L3.42126 4.5939L4.27989 3.65714L5.14632 4.14255C5.34753 4.25589 5.56892 4.32013 5.79515 4.33079C6.02138 4.34146 6.24703 4.29831 6.45645 4.20432C6.66587 4.11034 6.85404 3.96778 7.00791 3.78653C7.16178 3.60529 7.27767 3.38969 7.34753 3.15469L7.65976 2.13277H8.87745L9.18968 3.15469C9.25955 3.38969 9.37544 3.60529 9.52931 3.78653C9.68318 3.96778 9.87135 4.11034 10.0808 4.20432C10.2902 4.29831 10.5158 4.34146 10.7421 4.33079C10.9683 4.32013 11.1897 4.25589 11.3909 4.14255L12.2807 3.65714L13.1394 4.5939L12.671 5.53918C12.5713 5.75756 12.5157 5.99678 12.5081 6.24063C12.5005 6.48448 12.541 6.72727 12.6268 6.95256C12.7127 7.17786 12.8419 7.3804 13.0058 7.54647C13.1696 7.71254 13.3642 7.83827 13.5765 7.91514L14.5132 8.25578V9.60983ZM8.26861 5.53918C7.65108 5.53918 7.04742 5.73896 6.53396 6.11326C6.0205 6.48756 5.62031 7.01957 5.38399 7.64201C5.14767 8.26445 5.08584 8.94936 5.20632 9.61014C5.32679 10.2709 5.62416 10.8779 6.06082 11.3543C6.49748 11.8307 7.05382 12.1551 7.65948 12.2865C8.26515 12.418 8.89293 12.3505 9.46346 12.0927C10.034 11.8349 10.5216 11.3983 10.8647 10.8381C11.2078 10.2779 11.3909 9.6193 11.3909 8.94558C11.3909 8.04215 11.0619 7.17571 10.4764 6.53689C9.89086 5.89806 9.09669 5.53918 8.26861 5.53918V5.53918ZM8.26861 10.6488C7.95984 10.6488 7.65801 10.5489 7.40128 10.3617C7.14456 10.1746 6.94446 9.90859 6.8263 9.59737C6.70814 9.28615 6.67723 8.94369 6.73746 8.6133C6.7977 8.28291 6.94638 7.97943 7.16471 7.74124C7.38304 7.50304 7.66121 7.34082 7.96404 7.27511C8.26688 7.20939 8.58077 7.24312 8.86603 7.37203C9.15129 7.50094 9.39511 7.71924 9.56665 7.99933C9.73819 8.27942 9.82975 8.60872 9.82975 8.94558C9.82975 9.3973 9.66527 9.83051 9.3725 10.1499C9.07973 10.4693 8.68265 10.6488 8.26861 10.6488Z"/>
</svg>
