<svg width="32" height="32" viewBox="0 0 32 32" fill="none" xmlns="http://www.w3.org/2000/svg">
<path d="M28.4266 12.7333L25.9066 11.8933L27.0933 9.51996C27.2136 9.27154 27.2538 8.99192 27.2084 8.71966C27.1631 8.4474 27.0343 8.19594 26.84 7.99996L24 5.15996C23.8029 4.96274 23.5491 4.83224 23.274 4.7868C22.999 4.74136 22.7166 4.78326 22.4666 4.90663L20.0933 6.0933L19.2533 3.5733C19.1646 3.31062 18.9962 3.08213 18.7716 2.91963C18.5469 2.75712 18.2772 2.66869 18 2.66663H14C13.7204 2.66591 13.4478 2.75306 13.2205 2.91575C12.9932 3.07845 12.8227 3.30847 12.7333 3.5733L11.8933 6.0933L9.51996 4.90663C9.27154 4.78634 8.99192 4.7461 8.71966 4.79148C8.4474 4.83685 8.19594 4.9656 7.99996 5.15996L5.15996 7.99996C4.96274 8.19698 4.83224 8.45086 4.7868 8.7259C4.74136 9.00094 4.78326 9.28331 4.90663 9.5333L6.0933 11.9066L3.5733 12.7466C3.31062 12.8353 3.08213 13.0037 2.91963 13.2284C2.75712 13.453 2.66869 13.7227 2.66663 14V18C2.66591 18.2795 2.75306 18.5522 2.91575 18.7795C3.07845 19.0068 3.30847 19.1772 3.5733 19.2666L6.0933 20.1066L4.90663 22.48C4.78634 22.7284 4.7461 23.008 4.79148 23.2803C4.83685 23.5525 4.9656 23.804 5.15996 24L7.99996 26.84C8.19698 27.0372 8.45086 27.1677 8.7259 27.2131C9.00094 27.2586 9.28331 27.2167 9.5333 27.0933L11.9066 25.9066L12.7466 28.4266C12.8361 28.6915 13.0065 28.9215 13.2338 29.0842C13.4611 29.2469 13.7338 29.334 14.0133 29.3333H18.0133C18.2928 29.334 18.5655 29.2469 18.7928 29.0842C19.0201 28.9215 19.1905 28.6915 19.28 28.4266L20.12 25.9066L22.4933 27.0933C22.7401 27.2106 23.017 27.2491 23.2865 27.2038C23.556 27.1585 23.8051 27.0315 24 26.84L26.84 24C27.0372 23.8029 27.1677 23.5491 27.2131 23.274C27.2586 22.999 27.2167 22.7166 27.0933 22.4666L25.9066 20.0933L28.4266 19.2533C28.6893 19.1646 28.9178 18.9962 29.0803 18.7716C29.2428 18.5469 29.3312 18.2772 29.3333 18V14C29.334 13.7204 29.2469 13.4478 29.0842 13.2205C28.9215 12.9932 28.6915 12.8227 28.4266 12.7333ZM26.6666 17.04L25.0666 17.5733C24.6987 17.6926 24.3611 17.8906 24.0774 18.1534C23.7936 18.4163 23.5704 18.7377 23.4232 19.0954C23.2761 19.4531 23.2085 19.8386 23.2252 20.225C23.2419 20.6114 23.3425 20.9896 23.52 21.3333L24.28 22.8533L22.8133 24.32L21.3333 23.52C20.9914 23.3496 20.6168 23.2547 20.235 23.2417C19.8533 23.2287 19.4731 23.2978 19.1204 23.4445C18.7676 23.5911 18.4505 23.8119 18.1905 24.0917C17.9305 24.3716 17.7337 24.7041 17.6133 25.0666L17.08 26.6666H14.96L14.4266 25.0666C14.3073 24.6987 14.1093 24.3611 13.8465 24.0774C13.5837 23.7936 13.2622 23.5704 12.9045 23.4232C12.5468 23.2761 12.1614 23.2085 11.7749 23.2252C11.3885 23.2419 11.0103 23.3425 10.6666 23.52L9.14663 24.28L7.67996 22.8133L8.47996 21.3333C8.65742 20.9896 8.75799 20.6114 8.77469 20.225C8.79139 19.8386 8.72383 19.4531 8.57668 19.0954C8.42954 18.7377 8.20633 18.4163 7.92256 18.1534C7.63878 17.8906 7.30122 17.6926 6.9333 17.5733L5.3333 17.04V14.96L6.9333 14.4266C7.30122 14.3073 7.63878 14.1093 7.92256 13.8465C8.20633 13.5837 8.42954 13.2622 8.57668 12.9045C8.72383 12.5468 8.79139 12.1614 8.77469 11.7749C8.75799 11.3885 8.65742 11.0103 8.47996 10.6666L7.71996 9.18663L9.18663 7.71996L10.6666 8.47996C11.0103 8.65742 11.3885 8.75799 11.7749 8.77469C12.1614 8.79139 12.5468 8.72383 12.9045 8.57668C13.2622 8.42954 13.5837 8.20633 13.8465 7.92256C14.1093 7.63878 14.3073 7.30122 14.4266 6.9333L14.96 5.3333H17.04L17.5733 6.9333C17.6926 7.30122 17.8906 7.63878 18.1534 7.92256C18.4163 8.20633 18.7377 8.42954 19.0954 8.57668C19.4531 8.72383 19.8386 8.79139 20.225 8.77469C20.6114 8.75799 20.9896 8.65742 21.3333 8.47996L22.8533 7.71996L24.32 9.18663L23.52 10.6666C23.3496 11.0086 23.2547 11.3831 23.2417 11.7649C23.2287 12.1467 23.2978 12.5268 23.4445 12.8795C23.5911 13.2323 23.8119 13.5494 24.0917 13.8094C24.3716 14.0694 24.7041 14.2663 25.0666 14.3866L26.6666 14.92V17.04ZM16 10.6666C14.9451 10.6666 13.914 10.9794 13.0369 11.5655C12.1599 12.1515 11.4763 12.9844 11.0726 13.959C10.6689 14.9335 10.5633 16.0059 10.7691 17.0404C10.9749 18.075 11.4828 19.0253 12.2287 19.7712C12.9746 20.5171 13.9249 21.025 14.9595 21.2308C15.994 21.4366 17.0664 21.331 18.0409 20.9273C19.0155 20.5237 19.8484 19.8401 20.4345 18.963C21.0205 18.0859 21.3333 17.0548 21.3333 16C21.3333 14.5855 20.7714 13.2289 19.7712 12.2287C18.771 11.2285 17.4145 10.6666 16 10.6666V10.6666ZM16 18.6666C15.4725 18.6666 14.957 18.5102 14.5184 18.2172C14.0799 17.9242 13.7381 17.5077 13.5363 17.0205C13.3344 16.5332 13.2816 15.997 13.3845 15.4797C13.4874 14.9624 13.7414 14.4873 14.1143 14.1143C14.4873 13.7414 14.9624 13.4874 15.4797 13.3845C15.997 13.2816 16.5332 13.3344 17.0205 13.5363C17.5077 13.7381 17.9242 14.0799 18.2172 14.5184C18.5102 14.957 18.6666 15.4725 18.6666 16C18.6666 16.7072 18.3857 17.3855 17.8856 17.8856C17.3855 18.3857 16.7072 18.6666 16 18.6666Z" fill="black"/>
</svg>
