<svg width="30" height="33" xmlns="http://www.w3.org/2000/svg">
<path d="M19.1642 3.05158C17.823 1.94848 16.2524 1.15871 14.567 0.739899C12.8817 0.321087 11.1241 0.283798 9.42254 0.630751C7.15684 1.08841 5.07815 2.20877 3.4502 3.8497C1.82226 5.49063 0.718435 7.57815 0.278789 9.84742C-0.0422681 11.5489 0.0160729 13.3002 0.44965 14.9766C0.883227 16.6529 1.68136 18.2129 2.78712 19.5453C3.81333 20.7033 4.40155 22.1842 4.44962 23.7308V28.1058C4.44962 29.2661 4.91056 30.3789 5.73103 31.1993C6.5515 32.0198 7.6643 32.4808 8.82462 32.4808H14.658C15.8183 32.4808 16.9311 32.0198 17.7515 31.1993C18.572 30.3789 19.033 29.2661 19.033 28.1058V24.0078C19.0819 22.3004 19.7092 20.6601 20.8121 19.3558C22.7446 16.9652 23.6555 13.9086 23.347 10.8502C23.0384 7.7918 21.5352 4.97875 19.1642 3.02242V3.05158ZM16.1163 28.1058C16.1163 28.4925 15.9626 28.8635 15.6892 29.1369C15.4157 29.4104 15.0447 29.5641 14.658 29.5641H8.82462C8.43785 29.5641 8.06692 29.4104 7.79343 29.1369C7.51993 28.8635 7.36629 28.4925 7.36629 28.1058V26.6474H16.1163V28.1058ZM18.5517 17.5474C17.0854 19.2866 16.2298 21.4587 16.1163 23.7308H13.1996V19.3558C13.1996 18.969 13.046 18.598 12.7725 18.3246C12.499 18.0511 12.1281 17.8974 11.7413 17.8974C11.3545 17.8974 10.9836 18.0511 10.7101 18.3246C10.4366 18.598 10.283 18.969 10.283 19.3558V23.7308H7.36629C7.32781 21.4967 6.50142 19.3481 5.03296 17.6641C4.0641 16.5032 3.41259 15.1112 3.14195 13.6235C2.87131 12.1359 2.99078 10.6036 3.48871 9.1759C3.98664 7.74821 4.84603 6.47392 5.98309 5.47727C7.12016 4.48062 8.49608 3.79563 9.97671 3.48908C11.2492 3.22709 12.564 3.25173 13.8258 3.56123C15.0875 3.87073 16.2646 4.45731 17.2714 5.27839C18.2782 6.09947 19.0895 7.13445 19.6464 8.30817C20.2034 9.4819 20.492 10.7649 20.4913 12.0641C20.5021 14.0618 19.8162 16.0008 18.5517 17.5474V17.5474Z" />
</svg>
