<svg xmlns="http://www.w3.org/2000/svg">
<path d="M28.9233 12.4177L15.7983 0.751066C15.5322 0.517267 15.1901 0.388329 14.8358 0.388329C14.4816 0.388329 14.1394 0.517267 13.8733 0.751066L0.748316 12.4177C0.525243 12.6151 0.367936 12.876 0.297544 13.1654C0.227152 13.4547 0.247051 13.7587 0.354566 14.0365C0.460322 14.3106 0.646385 14.5463 0.888388 14.7128C1.13039 14.8794 1.41705 14.9689 1.71082 14.9698H3.16915V28.0948C3.16915 28.4816 3.32279 28.8525 3.59629 29.126C3.86978 29.3995 4.24071 29.5531 4.62748 29.5531H25.0441C25.4309 29.5531 25.8019 29.3995 26.0753 29.126C26.3488 28.8525 26.5025 28.4816 26.5025 28.0948V14.9698H27.9608C28.2546 14.9689 28.5412 14.8794 28.7832 14.7128C29.0252 14.5463 29.2113 14.3106 29.3171 14.0365C29.4246 13.7587 29.4445 13.4547 29.3741 13.1654C29.3037 12.876 29.1464 12.6151 28.9233 12.4177V12.4177ZM16.2941 26.6365H13.3775V22.2615C13.3775 21.8747 13.5311 21.5038 13.8046 21.2303C14.0781 20.9568 14.449 20.8032 14.8358 20.8032C15.2226 20.8032 15.5935 20.9568 15.867 21.2303C16.1405 21.5038 16.2941 21.8747 16.2941 22.2615V26.6365ZM23.5858 26.6365H19.2108V22.2615C19.2108 21.1012 18.7499 19.9884 17.9294 19.1679C17.1089 18.3474 15.9961 17.8865 14.8358 17.8865C13.6755 17.8865 12.5627 18.3474 11.7422 19.1679C10.9218 19.9884 10.4608 21.1012 10.4608 22.2615V26.6365H6.08582V14.9698H23.5858V26.6365ZM5.54623 12.0531L14.8358 3.79898L24.1254 12.0531H5.54623Z" />
</svg>
