<svg width="33" height="30" viewBox="0 0 33 30" fill="none" xmlns="http://www.w3.org/2000/svg">
<path d="M31.0685 0.131561H1.90181C1.51504 0.131561 1.14411 0.285207 0.870617 0.558697C0.597127 0.832188 0.443481 1.20312 0.443481 1.58989V13.2566C0.443481 13.6433 0.597127 14.0143 0.870617 14.2878C1.14411 14.5612 1.51504 14.7149 1.90181 14.7149H6.27682V27.8399C6.27682 28.2267 6.43046 28.5976 6.70395 28.8711C6.97744 29.1446 7.34837 29.2982 7.73515 29.2982H25.2352C25.6219 29.2982 25.9929 29.1446 26.2663 28.8711C26.5398 28.5976 26.6935 28.2267 26.6935 27.8399V14.7149H31.0685C31.4553 14.7149 31.8262 14.5612 32.0997 14.2878C32.3732 14.0143 32.5268 13.6433 32.5268 13.2566V1.58989C32.5268 1.20312 32.3732 0.832188 32.0997 0.558697C31.8262 0.285207 31.4553 0.131561 31.0685 0.131561V0.131561ZM9.19348 26.3816V23.4649C9.96703 23.4649 10.7089 23.7722 11.2559 24.3192C11.8029 24.8661 12.1101 25.608 12.1101 26.3816H9.19348ZM23.7768 26.3816H20.8602C20.8602 25.608 21.1674 24.8661 21.7144 24.3192C22.2614 23.7722 23.0033 23.4649 23.7768 23.4649V26.3816ZM23.7768 20.5482C22.2297 20.5482 20.746 21.1628 19.652 22.2568C18.5581 23.3507 17.9435 24.8345 17.9435 26.3816H15.0268C15.0268 24.8345 14.4122 23.3507 13.3183 22.2568C12.2243 21.1628 10.7406 20.5482 9.19348 20.5482V8.88156H23.7768V20.5482ZM29.6102 11.7982H26.6935V7.42323C26.6935 7.03645 26.5398 6.66552 26.2663 6.39203C25.9929 6.11854 25.6219 5.96489 25.2352 5.96489H7.73515C7.34837 5.96489 6.97744 6.11854 6.70395 6.39203C6.43046 6.66552 6.27682 7.03645 6.27682 7.42323V11.7982H3.36015V3.04823H29.6102V11.7982ZM16.4851 19.0899C17.3504 19.0899 18.1963 18.8333 18.9158 18.3526C19.6352 17.8718 20.196 17.1886 20.5271 16.3891C20.8583 15.5897 20.9449 14.71 20.7761 13.8614C20.6073 13.0127 20.1906 12.2332 19.5787 11.6213C18.9669 11.0094 18.1873 10.5928 17.3387 10.424C16.49 10.2551 15.6103 10.3418 14.8109 10.6729C14.0115 11.0041 13.3282 11.5648 12.8475 12.2843C12.3667 13.0037 12.1101 13.8496 12.1101 14.7149C12.1101 15.8752 12.5711 16.988 13.3916 17.8085C14.212 18.629 15.3248 19.0899 16.4851 19.0899ZM16.4851 13.2566C16.7736 13.2566 17.0555 13.3421 17.2954 13.5023C17.5352 13.6626 17.7221 13.8903 17.8325 14.1568C17.9429 14.4233 17.9717 14.7165 17.9155 14.9994C17.8592 15.2823 17.7203 15.5421 17.5163 15.7461C17.3124 15.95 17.0525 16.0889 16.7697 16.1452C16.4868 16.2015 16.1935 16.1726 15.9271 16.0622C15.6606 15.9518 15.4328 15.7649 15.2726 15.5251C15.1123 15.2853 15.0268 15.0033 15.0268 14.7149C15.0268 14.3281 15.1805 13.9572 15.454 13.6837C15.7274 13.4102 16.0984 13.2566 16.4851 13.2566V13.2566Z" />
</svg>
