<svg xmlns="http://www.w3.org/2000/svg">
<path d="M30.5455 0H1.45455C1.06877 0 0.698807 0.168576 0.426022 0.468624C0.153251 0.768688 0 1.17565 0 1.6V8C0.00253091 8.9903 0.283462 9.95552 0.804276 10.7633C1.32509 11.5711 2.06029 12.1819 2.90909 12.512V30.4C2.90909 30.8243 3.06234 31.2314 3.33511 31.5314C3.6079 31.8314 3.97786 32 4.36364 32H27.6364C28.0221 32 28.3921 31.8314 28.6649 31.5314C28.9376 31.2314 29.0909 30.8243 29.0909 30.4V12.512C29.9396 12.1819 30.6749 11.5711 31.1958 10.7633C31.7165 9.95552 31.9975 8.9903 32 8V1.6C32 1.17565 31.8467 0.768688 31.574 0.468624C31.3012 0.168576 30.9312 0 30.5455 0ZM20.3636 3.2H23.2727V8C23.2727 8.42435 23.1194 8.83131 22.8467 9.13138C22.574 9.43142 22.2039 9.6 21.8182 9.6C21.4324 9.6 21.0624 9.43142 20.7897 9.13138C20.5169 8.83131 20.3636 8.42435 20.3636 8V3.2ZM14.5455 3.2H17.4545V8C17.4545 8.42435 17.3012 8.83131 17.0285 9.13138C16.7558 9.43142 16.3857 9.6 16 9.6C15.6143 9.6 15.2442 9.43142 14.9715 9.13138C14.6988 8.83131 14.5455 8.42435 14.5455 8V3.2ZM8.72727 3.2H11.6364V8C11.6364 8.42435 11.4831 8.83131 11.2103 9.13138C10.9376 9.43142 10.5676 9.6 10.1818 9.6C9.79604 9.6 9.42608 9.43142 9.15329 9.13138C8.88052 8.83131 8.72727 8.42435 8.72727 8V3.2ZM4.36364 9.6C3.97786 9.6 3.6079 9.43142 3.33511 9.13138C3.06234 8.83131 2.90909 8.42435 2.90909 8V3.2H5.81818V8C5.81818 8.42435 5.66493 8.83131 5.39216 9.13138C5.11937 9.43142 4.74941 9.6 4.36364 9.6ZM18.9091 28.8H13.0909V22.4C13.0909 21.5514 13.3974 20.7374 13.943 20.1373C14.4886 19.5371 15.2285 19.2 16 19.2C16.7715 19.2 17.5114 19.5371 18.057 20.1373C18.6026 20.7374 18.9091 21.5514 18.9091 22.4V28.8ZM26.1818 28.8H21.8182V22.4C21.8182 20.7026 21.2052 19.0747 20.114 17.8746C19.023 16.6742 17.5431 16 16 16C14.4569 16 12.977 16.6742 11.8859 17.8746C10.7948 19.0747 10.1818 20.7026 10.1818 22.4V28.8H5.81818V12.512C6.35283 12.2937 6.84602 11.9682 7.27273 11.552C8.07276 12.3391 9.10847 12.7743 10.1818 12.7743C11.2552 12.7743 12.2909 12.3391 13.0909 11.552C13.8909 12.3391 14.9267 12.7743 16 12.7743C17.0733 12.7743 18.1091 12.3391 18.9091 11.552C19.7091 12.3391 20.7449 12.7743 21.8182 12.7743C22.8915 12.7743 23.9273 12.3391 24.7273 11.552C25.154 11.9682 25.6471 12.2937 26.1818 12.512V28.8ZM29.0909 8C29.0909 8.42435 28.9376 8.83131 28.6649 9.13138C28.3921 9.43142 28.0221 9.6 27.6364 9.6C27.2506 9.6 26.8806 9.43142 26.6079 9.13138C26.3351 8.83131 26.1818 8.42435 26.1818 8V3.2H29.0909V8Z" fill="black"/>
</svg>
