<svg xmlns="http://www.w3.org/2000/svg" viewBox="0 0 32 32" fill="none">
<path d="M29.3334 2.66663H2.66671C2.31309 2.66663 1.97395 2.8071 1.7239 3.05715C1.47385 3.3072 1.33337 3.64634 1.33337 3.99996V9.33329C1.33569 10.1586 1.59321 10.9629 2.07063 11.636C2.54804 12.3092 3.22197 12.8182 4.00004 13.0933V28C4.00004 28.3536 4.14052 28.6927 4.39056 28.9428C4.64061 29.1928 4.97975 29.3333 5.33337 29.3333H26.6667C27.0203 29.3333 27.3595 29.1928 27.6095 28.9428C27.8596 28.6927 28 28.3536 28 28V13.0933C28.7781 12.8182 29.452 12.3092 29.9295 11.636C30.4069 10.9629 30.6644 10.1586 30.6667 9.33329V3.99996C30.6667 3.64634 30.5262 3.3072 30.2762 3.05715C30.0261 2.8071 29.687 2.66663 29.3334 2.66663V2.66663ZM20 5.33329H22.6667V9.33329C22.6667 9.68691 22.5262 10.0261 22.2762 10.2761C22.0261 10.5262 21.687 10.6666 21.3334 10.6666C20.9798 10.6666 20.6406 10.5262 20.3906 10.2761C20.1405 10.0261 20 9.68691 20 9.33329V5.33329ZM14.6667 5.33329H17.3334V9.33329C17.3334 9.68691 17.1929 10.0261 16.9428 10.2761C16.6928 10.5262 16.3537 10.6666 16 10.6666C15.6464 10.6666 15.3073 10.5262 15.0572 10.2761C14.8072 10.0261 14.6667 9.68691 14.6667 9.33329V5.33329ZM9.33337 5.33329H12V9.33329C12 9.68691 11.8596 10.0261 11.6095 10.2761C11.3595 10.5262 11.0203 10.6666 10.6667 10.6666C10.3131 10.6666 9.97395 10.5262 9.7239 10.2761C9.47385 10.0261 9.33337 9.68691 9.33337 9.33329V5.33329ZM5.33337 10.6666C4.97975 10.6666 4.64061 10.5262 4.39056 10.2761C4.14052 10.0261 4.00004 9.68691 4.00004 9.33329V5.33329H6.66671V9.33329C6.66671 9.68691 6.52623 10.0261 6.27618 10.2761C6.02613 10.5262 5.687 10.6666 5.33337 10.6666ZM18.6667 26.6666H13.3334V21.3333C13.3334 20.626 13.6143 19.9478 14.1144 19.4477C14.6145 18.9476 15.2928 18.6666 16 18.6666C16.7073 18.6666 17.3856 18.9476 17.8857 19.4477C18.3858 19.9478 18.6667 20.626 18.6667 21.3333V26.6666ZM25.3334 26.6666H21.3334V21.3333C21.3334 19.9188 20.7715 18.5623 19.7713 17.5621C18.7711 16.5619 17.4145 16 16 16C14.5856 16 13.229 16.5619 12.2288 17.5621C11.2286 18.5623 10.6667 19.9188 10.6667 21.3333V26.6666H6.66671V13.0933C7.1568 12.9114 7.60889 12.6401 8.00004 12.2933C8.7334 12.9492 9.6828 13.3119 10.6667 13.3119C11.6506 13.3119 12.6 12.9492 13.3334 12.2933C14.0667 12.9492 15.0161 13.3119 16 13.3119C16.9839 13.3119 17.9333 12.9492 18.6667 12.2933C19.4001 12.9492 20.3495 13.3119 21.3334 13.3119C22.3173 13.3119 23.2667 12.9492 24 12.2933C24.3912 12.6401 24.8433 12.9114 25.3334 13.0933V26.6666ZM28 9.33329C28 9.68691 27.8596 10.0261 27.6095 10.2761C27.3595 10.5262 27.0203 10.6666 26.6667 10.6666C26.3131 10.6666 25.9739 10.5262 25.7239 10.2761C25.4738 10.0261 25.3334 9.68691 25.3334 9.33329V5.33329H28V9.33329Z" fill="black"/>
</svg>