<svg width="20" height="19" viewBox="0 0 20 19" fill="none" xmlns="http://www.w3.org/2000/svg">
<path d="M19.279 9.73783C19.279 9.49315 19.1564 9.25849 18.9381 9.08547C18.7198 8.91246 18.4238 8.81526 18.1151 8.81526H9.28067L11.9578 6.70258C12.0663 6.61656 12.1524 6.51444 12.2111 6.40205C12.2698 6.28966 12.3001 6.1692 12.3001 6.04755C12.3001 5.92591 12.2698 5.80545 12.2111 5.69306C12.1524 5.58067 12.0663 5.47855 11.9578 5.39253C11.8492 5.30651 11.7204 5.23828 11.5786 5.19173C11.4368 5.14517 11.2848 5.12121 11.1314 5.12121C10.9779 5.12121 10.8259 5.14517 10.6841 5.19173C10.5423 5.23828 10.4135 5.30651 10.3049 5.39253L5.64913 9.0828C5.54316 9.17054 5.46009 9.274 5.4047 9.38725C5.28828 9.61186 5.28828 9.86379 5.4047 10.0884C5.46009 10.2016 5.54316 10.3051 5.64913 10.3929L10.3049 14.0831C10.4132 14.1696 10.5419 14.2382 10.6837 14.2851C10.8256 14.3319 10.9777 14.356 11.1314 14.356C11.285 14.356 11.4371 14.3319 11.579 14.2851C11.7208 14.2382 11.8496 14.1696 11.9578 14.0831C12.0669 13.9974 12.1534 13.8953 12.2125 13.7829C12.2716 13.6705 12.3021 13.5499 12.3021 13.4281C12.3021 13.3063 12.2716 13.1857 12.2125 13.0733C12.1534 12.9609 12.0669 12.8588 11.9578 12.7731L9.28067 10.6604H18.1151C18.4238 10.6604 18.7198 10.5632 18.9381 10.3902C19.1564 10.2172 19.279 9.98251 19.279 9.73783ZM15.7872 0.512146H4.14763C3.22153 0.512146 2.33336 0.803743 1.67851 1.32279C1.02365 1.84183 0.655762 2.54581 0.655762 3.27985V16.1958C0.655762 16.9298 1.02365 17.6338 1.67851 18.1529C2.33336 18.6719 3.22153 18.9635 4.14763 18.9635H15.7872C16.7133 18.9635 17.6014 18.6719 18.2563 18.1529C18.9111 17.6338 19.279 16.9298 19.279 16.1958V13.4281C19.279 13.1834 19.1564 12.9488 18.9381 12.7757C18.7198 12.6027 18.4238 12.5055 18.1151 12.5055C17.8064 12.5055 17.5103 12.6027 17.292 12.7757C17.0738 12.9488 16.9511 13.1834 16.9511 13.4281V16.1958C16.9511 16.4405 16.8285 16.6751 16.6102 16.8482C16.3919 17.0212 16.0959 17.1184 15.7872 17.1184H4.14763C3.83893 17.1184 3.54287 17.0212 3.32459 16.8482C3.1063 16.6751 2.98367 16.4405 2.98367 16.1958V3.27985C2.98367 3.03517 3.1063 2.80051 3.32459 2.6275C3.54287 2.45448 3.83893 2.35728 4.14763 2.35728H15.7872C16.0959 2.35728 16.3919 2.45448 16.6102 2.6275C16.8285 2.80051 16.9511 3.03517 16.9511 3.27985V6.04755C16.9511 6.29224 17.0738 6.52689 17.292 6.69991C17.5103 6.87292 17.8064 6.97012 18.1151 6.97012C18.4238 6.97012 18.7198 6.87292 18.9381 6.69991C19.1564 6.52689 19.279 6.29224 19.279 6.04755V3.27985C19.279 2.54581 18.9111 1.84183 18.2563 1.32279C17.6014 0.803743 16.7133 0.512146 15.7872 0.512146Z" fill="#9D9D9D"/>
</svg>
